<svg xmlns="http://www.w3.org/2000/svg" xmlns:xlink="http://www.w3.org/1999/xlink" xmlns:serif="http://www.serif.com/" width="100%" height="100%" viewBox="0 0 1920 1080" version="1.1" xml:space="preserve" style="fill-rule:evenodd;clip-rule:evenodd;stroke-linecap:round;stroke-linejoin:round;stroke-miterlimit:1.5;">
    <g transform="scale(0.37383363915869994) translate(1128.0,519.0)" opacity="0.2"><g id="Narrowtapered">
    </g>
    <g transform="matrix(2.66418,0,0,2.66418,-3007.02,-1467.26)">
        <g id="Tapered">
            <path d="M1253.47,953.657C1254.33,931.893 1256.05,888.365 1262.51,856.482C1269.75,820.779 1284.19,771.661 1296.9,739.439C1307.53,712.456 1321.59,686.024 1338.73,663.146C1355.87,640.267 1378.59,616.827 1399.73,602.169C1419.22,588.654 1442.89,578.698 1465.58,575.197C1488.26,571.695 1513.49,573.869 1535.83,581.163C1558.54,588.577 1582.95,602.588 1601.85,619.681C1622.16,638.056 1643.32,664.741 1657.7,691.415C1668.73,711.888 1680.99,738.529 1690.62,765.54C1695.79,780.044 1699.81,794.336 1703.63,808.474C1716.58,856.482 1721.91,921.266 1724.58,953.657" style="fill:none;stroke:black;stroke-width:0.19px;"/>
        </g>
    </g>
    <g transform="matrix(2.66418,0,0,2.66418,-3007.02,-1469.93)">
        <path d="M1489.03,551.738L1489.03,885.244" style="fill:none;stroke:black;stroke-width:0.19px;"/>
    </g>
</g></svg>
