<svg xmlns="http://www.w3.org/2000/svg" xmlns:xlink="http://www.w3.org/1999/xlink" xmlns:serif="http://www.serif.com/" width="100%" height="100%" viewBox="0 0 1920 1080" version="1.1" xml:space="preserve" style="fill-rule:evenodd;clip-rule:evenodd;stroke-linecap:round;stroke-linejoin:round;stroke-miterlimit:1.5;">
    <g transform="translate(1116.0,640.0)" opacity="0.2"><g id="Narrowtapered">
    </g>
    <g id="Narrowtapered1" serif:id="Narrowtapered" transform="matrix(2.75345,0,0,2.75345,-1686.05,-1568.5)">
        <path d="M787.03,953.657C785.999,942.581 783.938,920.429 785.03,903.848C786.669,878.963 788.862,836.776 796.864,804.349C805.8,768.141 821.096,718.2 838.642,686.603C854.156,658.662 879.731,629.356 902.136,614.764C922.431,601.546 949.539,596.457 973.074,599.048C996.609,601.638 1024.13,613.334 1043.35,630.307C1063.38,648.006 1080.31,678.173 1093.29,705.239C1107.19,734.246 1119.47,776.28 1126.79,804.349C1132.67,826.952 1135.7,850.337 1137.16,873.65C1138.71,898.534 1136.96,935.283 1136.09,953.657" style="fill:none;stroke:black;stroke-width:0.18px;"/>
        <g id="NarrowTapered">
        </g>
    </g>
    <g transform="matrix(2.75345,0,0,2.75345,-1686.05,-1568.5)">
        <path d="M960.992,569.649L960.992,878.657" style="fill:none;stroke:black;stroke-width:0.18px;"/>
    </g>
</g></svg>
