<?xml version="1.0" encoding="UTF-8" standalone="no"?>
<!DOCTYPE svg PUBLIC "-//W3C//DTD SVG 1.1//EN" "http://www.w3.org/Graphics/SVG/1.1/DTD/svg11.dtd">
<svg width="100%" height="100%" viewBox="0 0 1920 1080" version="1.1" xmlns="http://www.w3.org/2000/svg" xmlns:xlink="http://www.w3.org/1999/xlink" xml:space="preserve" xmlns:serif="http://www.serif.com/" style="fill-rule:evenodd;clip-rule:evenodd;stroke-linecap:round;stroke-linejoin:round;stroke-miterlimit:1.5;">
    <g transform="matrix(2.79175,0,0,2.78574,-2572.84,-30.4858)">
        <path d="M1046.47,398.632C1050.02,378.353 1057.12,337.794 1063.47,307.579C1070.99,271.782 1080.12,219.065 1091.62,183.851C1101.61,153.238 1118.9,117.406 1132.43,96.29C1142.54,80.512 1156.68,66.732 1172.79,57.157C1189.59,47.172 1212.2,39.843 1233.22,36.382C1254.24,32.919 1280.28,34.074 1298.92,36.382C1314.84,38.354 1330.84,43.353 1345.03,50.227C1359.22,57.102 1372.89,66.391 1384.06,77.626C1395.22,88.861 1404.35,104.234 1412.04,117.64C1419.39,130.452 1424.84,144.293 1430.19,158.06C1435.86,172.629 1441.7,189.421 1446.02,205.054C1450.27,220.436 1452.7,236.301 1456.12,251.854C1459.53,267.374 1463.34,282.809 1466.54,298.374C1469.77,314.137 1472.57,330.411 1475.56,346.435C1478.54,362.456 1482.47,383.827 1484.44,394.513" style="fill:none;stroke:black;stroke-width:0.18px;"/>
    </g>
    <g transform="matrix(2.79664,0,0,2.79664,-2577.3,-34.8295)">
        <path d="M1265.45,12.454L1265.45,325.495" style="fill:none;stroke:black;stroke-width:0.18px;"/>
    </g>
</svg>
