<?xml version="1.0" encoding="UTF-8" standalone="no"?>
<!DOCTYPE svg PUBLIC "-//W3C//DTD SVG 1.1//EN" "http://www.w3.org/Graphics/SVG/1.1/DTD/svg11.dtd">
<svg width="100%" height="100%" viewBox="0 0 1920 1080" version="1.1" xmlns="http://www.w3.org/2000/svg" xmlns:xlink="http://www.w3.org/1999/xlink" xml:space="preserve" xmlns:serif="http://www.serif.com/" style="fill-rule:evenodd;clip-rule:evenodd;stroke-linecap:round;stroke-linejoin:round;stroke-miterlimit:1.5;">
    <g transform="matrix(2.54957,0,0,2.54957,-56.3798,-1435.03)">
        <path d="M397.72,562.851C397.54,667.874 397.36,772.896 397.181,877.919" style="fill:none;stroke:black;stroke-width:0.2px;"/>
    </g>
    <g transform="matrix(2.54957,0,0,2.54957,-56.3798,-1437.58)">
        <path d="M173.941,978.091C175.629,946.578 179.005,883.552 185.142,847.052C190.031,817.973 195.36,788.755 204.652,760.77C214.103,732.307 231.164,696.623 241.85,676.27C249.018,662.619 258.814,649.978 268.769,638.653C278.603,627.466 288.798,615.968 301.579,608.32C316.529,599.374 339.375,589.534 358.467,584.976C374.662,581.111 391.786,580.252 408.302,580.252C410.928,580.252 413.534,580.658 416.134,580.976C436.554,583.472 461.969,590.34 480.988,599.953C499.624,609.372 516.877,622.614 530.248,638.653C545.376,656.8 560.209,684.227 571.756,708.83C583.458,733.763 593.953,760.863 600.459,788.25C607.27,816.919 611.751,847.836 615.379,877.919C619.195,909.559 621.968,955.247 623.355,978.091" style="fill:none;stroke:black;stroke-width:0.2px;"/>
    </g>
</svg>
