<?xml version="1.0" encoding="UTF-8" standalone="no"?>
<!DOCTYPE svg PUBLIC "-//W3C//DTD SVG 1.1//EN" "http://www.w3.org/Graphics/SVG/1.1/DTD/svg11.dtd">
<svg width="100%" height="100%" viewBox="0 0 1920 1080" version="1.1" xmlns="http://www.w3.org/2000/svg" xmlns:xlink="http://www.w3.org/1999/xlink" xml:space="preserve" xmlns:serif="http://www.serif.com/" style="fill-rule:evenodd;clip-rule:evenodd;stroke-linecap:round;stroke-linejoin:round;stroke-miterlimit:1.5;">
    <g transform="matrix(2.73949,0,0,2.73949,-821.366,-57.6034)">
        <path d="M649.881,25.722L649.881,335.159M407.592,410.566C409.804,382.926 414.228,327.645 426.467,288.247C439.281,246.997 465.419,194.63 484.477,163.067C499.193,138.695 522.665,113.977 540.815,98.87C555.888,86.324 574.562,77.977 593.371,72.427C613.233,66.566 637.624,62.501 659.986,63.704C682.548,64.918 708.007,70.059 728.738,79.712C749.47,89.365 768.836,105.971 784.375,121.62C799.444,136.795 810.895,155.313 821.973,173.606C833.755,193.063 846.392,219.255 855.07,238.362C862.428,254.56 868.955,271.2 874.045,288.247C879.676,307.105 885.71,331.122 888.856,351.509C891.864,371.01 892.565,397.381 892.915,410.566" style="fill:none;stroke:black;stroke-width:0.18px;"/>
    </g>
</svg>
