<svg width="1625.283" height="640.263" viewBox="0 0 1625.283 640.263" xmlns="http://www.w3.org/2000/svg" xmlns:xlink="http://www.w3.org/1999/xlink"><defs><clipPath id="clip-1"><rect x="0" y="0" transform="" width="1625.283" height="640.263" stroke="none"></rect></clipPath></defs><g clip-path="url(#clip-1)" id="Frame 1" fill="none" fill-rule="nonzero" stroke="none" stroke-width="1" stroke-linecap="butt" stroke-linejoin="miter" stroke-miterlimit="10" stroke-dasharray="" stroke-dashoffset="0" font-family="none" font-weight="none" font-size="none" text-anchor="none" style="mix-blend-mode: normal"><rect x="0" y="0" width="1625.283" height="640.263" stroke="none"></rect><line x1="866.8574" y1="427.7309" x2="886.6621" y2="192.5025" id="incisor1 1" stroke="#000000"></line><line x1="1142.5101" y1="427.0313" x2="1153.4373" y2="192.5025" id="premolar1R 1" stroke="#000000"></line><line x1="1439.0445" y1="427.0313" x2="1457.7492" y2="192.5025" id="molar2R 1" stroke="#000000"></line><line x1="1319.6218" y1="426.3119" x2="1342.6431" y2="192.5025" id="molar1R 1" stroke="#000000"></line><line x1="1227.5369" y1="427.0313" x2="1241.2057" y2="192.5025" id="premolar2R 2" stroke="#000000"></line><line x1="1055.56" y1="430.3386" x2="1094.3819" y2="192.5025" id="canineR 1" stroke="#000000"></line><line x1="960.0032" y1="428.3595" x2="994.5857" y2="192.5025" id="incisor2 1" stroke="#000000"></line><line x1="776.9591" y1="426.6757" x2="757.1543" y2="191.4473" id="incisor1 1 1" stroke="#000000"></line><line x1="1406.2216" y1="716.5678" x2="1406.2216" y2="714.0784" stroke="none"></line><line x1="679.365" y1="427.3043" x2="644.7825" y2="191.4473" id="incisor2 1 1" stroke="#000000"></line><line x1="501.3063" y1="425.9761" x2="490.3791" y2="191.4473" id="premolar1R 1 1" stroke="#000000"></line><line x1="418.7689" y1="425.2567" x2="405.1" y2="190.7279" id="premolar2R 2 1" stroke="#000000"></line><line x1="326.684" y1="425.2567" x2="303.6627" y2="191.4473" id="molar1R 1 1" stroke="#000000"></line><line x1="212.24" y1="425.9761" x2="193.5353" y2="191.4473" id="molar2R 1 1" stroke="#000000"></line><line x1="835.0838" y1="364.6233" x2="835.0838" y2="114.1442" stroke="none"></line><line x1="835.0838" y1="181.3568" x2="835.0838" y2="425.2567" stroke="none"></line><line x1="595.7244" y1="430.3386" x2="556.9026" y2="192.5025" id="canineR 1 1" stroke="#000000"></line><line x1="1536.0056" y1="427.7309" x2="39.5666" y2="427.7309" stroke="#000000"></line></g></svg>