<?xml version="1.0" encoding="UTF-8" standalone="no"?>
<!DOCTYPE svg PUBLIC "-//W3C//DTD SVG 1.1//EN" "http://www.w3.org/Graphics/SVG/1.1/DTD/svg11.dtd">
<svg width="100%" height="100%" viewBox="0 0 960 1080" version="1.1" xmlns="http://www.w3.org/2000/svg" xmlns:xlink="http://www.w3.org/1999/xlink" xml:space="preserve" xmlns:serif="http://www.serif.com/" style="fill-rule:evenodd;clip-rule:evenodd;stroke-linecap:round;stroke-linejoin:round;stroke-miterlimit:1.5;">
    <g transform="matrix(0.527857,0,0,0.527857,-53.4852,111.98)">
        <path d="M101.325,132.002L1920,132.002L996.762,132.002L996.762,1541.47L996.762,6.966" style="fill:none;stroke:rgb(180,13,11);stroke-width:1.89px;"/>
    </g>
    <g transform="matrix(1,0,0,0.633104,-38.8174,-16.2067)">
        <path d="M43.749,334.264L43.749,311.481" style="fill:none;stroke:black;stroke-width:0.9px;stroke-linecap:butt;stroke-linejoin:miter;stroke-miterlimit:2;"/>
    </g>
    <g transform="matrix(1,0,0,1,-38.8174,-130.488)">
        <path d="M57.922,325.905L57.922,311.481" style="fill:none;fill-rule:nonzero;"/>
    </g>
    <g transform="matrix(1,0,0,1,-38.8174,-130.488)">
        <path d="M57.922,325.905L57.922,311.481" style="fill:none;stroke:black;stroke-width:0.75px;stroke-linecap:butt;stroke-linejoin:miter;stroke-miterlimit:2;"/>
    </g>
    <g transform="matrix(1,0,0,1,-38.8174,-130.488)">
        <path d="M72.095,325.905L72.095,311.481" style="fill:none;stroke:black;stroke-width:0.75px;stroke-linecap:butt;stroke-linejoin:miter;stroke-miterlimit:2;"/>
    </g>
    <g transform="matrix(1,0,0,1,-38.8174,-130.488)">
        <path d="M86.269,325.905L86.269,311.481" style="fill:none;fill-rule:nonzero;"/>
    </g>
    <g transform="matrix(1,0,0,1,-38.8174,-130.488)">
        <path d="M86.269,325.905L86.269,311.481" style="fill:none;stroke:black;stroke-width:0.75px;stroke-linecap:butt;stroke-linejoin:miter;stroke-miterlimit:2;"/>
    </g>
    <g transform="matrix(1,0,0,1,-38.8174,-130.488)">
        <path d="M100.442,325.905L100.442,311.481" style="fill:none;stroke:black;stroke-width:0.75px;stroke-linecap:butt;stroke-linejoin:miter;stroke-miterlimit:2;"/>
    </g>
    <g transform="matrix(1,0,0,1,-38.8174,-130.488)">
        <path d="M114.616,325.905L114.616,311.481" style="fill:none;fill-rule:nonzero;"/>
    </g>
    <g transform="matrix(1,0,0,1,-38.8174,-130.488)">
        <path d="M114.616,325.905L114.616,311.481" style="fill:none;stroke:black;stroke-width:0.75px;stroke-linecap:butt;stroke-linejoin:miter;stroke-miterlimit:2;"/>
    </g>
    <g transform="matrix(1,0,0,1,-38.8174,-130.488)">
        <path d="M128.789,325.905L128.789,311.481" style="fill:none;stroke:black;stroke-width:0.75px;stroke-linecap:butt;stroke-linejoin:miter;stroke-miterlimit:2;"/>
    </g>
    <g transform="matrix(1,0,0,1,-38.8174,-130.488)">
        <path d="M142.963,325.905L142.963,311.481" style="fill:none;fill-rule:nonzero;"/>
    </g>
    <g transform="matrix(1,0,0,1,-38.8174,-130.488)">
        <path d="M142.963,325.905L142.963,311.481" style="fill:none;stroke:black;stroke-width:0.75px;stroke-linecap:butt;stroke-linejoin:miter;stroke-miterlimit:2;"/>
    </g>
    <g transform="matrix(1,0,0,1,-38.8174,-130.488)">
        <path d="M157.136,325.905L157.136,311.481" style="fill:none;stroke:black;stroke-width:0.75px;stroke-linecap:butt;stroke-linejoin:miter;stroke-miterlimit:2;"/>
    </g>
    <g transform="matrix(1,0,0,1,-38.8174,-130.488)">
        <path d="M171.31,325.905L171.31,311.481" style="fill:none;fill-rule:nonzero;"/>
    </g>
    <g transform="matrix(1,0,0,1,-38.8174,-130.488)">
        <path d="M171.31,325.905L171.31,311.481" style="fill:none;stroke:black;stroke-width:0.75px;stroke-linecap:butt;stroke-linejoin:miter;stroke-miterlimit:2;"/>
    </g>
    <g transform="matrix(1,0,0,1,-38.8174,-130.488)">
        <path d="M185.482,325.905L185.482,311.481" style="fill:none;stroke:black;stroke-width:0.75px;stroke-linecap:butt;stroke-linejoin:miter;stroke-miterlimit:2;"/>
    </g>
    <g transform="matrix(1,0,0,1,-38.8174,-130.488)">
        <path d="M199.656,325.905L199.656,311.481" style="fill:none;fill-rule:nonzero;"/>
    </g>
    <g transform="matrix(1,0,0,1,-38.8174,-130.488)">
        <path d="M199.656,325.905L199.656,311.481" style="fill:none;stroke:black;stroke-width:0.75px;stroke-linecap:butt;stroke-linejoin:miter;stroke-miterlimit:2;"/>
    </g>
    <g transform="matrix(1,0,0,1,-38.8174,-130.488)">
        <path d="M213.829,325.905L213.829,311.481" style="fill:none;stroke:black;stroke-width:0.75px;stroke-linecap:butt;stroke-linejoin:miter;stroke-miterlimit:2;"/>
    </g>
    <g transform="matrix(1,0,0,1,-38.8174,-130.488)">
        <path d="M228.003,325.905L228.003,311.481" style="fill:none;fill-rule:nonzero;"/>
    </g>
    <g transform="matrix(1,0,0,1,-38.8174,-130.488)">
        <path d="M228.003,325.905L228.003,311.481" style="fill:none;stroke:black;stroke-width:0.75px;stroke-linecap:butt;stroke-linejoin:miter;stroke-miterlimit:2;"/>
    </g>
    <g transform="matrix(1,0,0,1,-38.8174,-130.488)">
        <path d="M242.176,325.905L242.176,311.481" style="fill:none;stroke:black;stroke-width:0.75px;stroke-linecap:butt;stroke-linejoin:miter;stroke-miterlimit:2;"/>
    </g>
    <g transform="matrix(1,0,0,1,-38.8174,-130.488)">
        <path d="M256.35,325.905L256.35,311.481" style="fill:none;fill-rule:nonzero;"/>
    </g>
    <g transform="matrix(1,0,0,1,-38.8174,-130.488)">
        <path d="M256.35,325.905L256.35,311.481" style="fill:none;stroke:black;stroke-width:0.75px;stroke-linecap:butt;stroke-linejoin:miter;stroke-miterlimit:2;"/>
    </g>
    <g transform="matrix(1,0,0,1,-38.8174,-130.488)">
        <path d="M270.522,325.905L270.522,311.481" style="fill:none;stroke:black;stroke-width:0.75px;stroke-linecap:butt;stroke-linejoin:miter;stroke-miterlimit:2;"/>
    </g>
    <g transform="matrix(1,0,0,1,-38.8174,-130.488)">
        <path d="M284.696,325.905L284.696,311.481" style="fill:none;fill-rule:nonzero;"/>
    </g>
    <g transform="matrix(1,0,0,1,-38.8174,-130.488)">
        <path d="M284.696,325.905L284.696,311.481" style="fill:none;stroke:black;stroke-width:0.75px;stroke-linecap:butt;stroke-linejoin:miter;stroke-miterlimit:2;"/>
    </g>
    <g transform="matrix(1,0,0,1,-38.8174,-130.488)">
        <path d="M298.869,325.905L298.869,311.481" style="fill:none;stroke:black;stroke-width:0.75px;stroke-linecap:butt;stroke-linejoin:miter;stroke-miterlimit:2;"/>
    </g>
    <g transform="matrix(1,0,0,1,-38.8174,-130.488)">
        <path d="M313.043,325.905L313.043,311.481" style="fill:none;fill-rule:nonzero;"/>
    </g>
    <g transform="matrix(1,0,0,1,-38.8174,-130.488)">
        <path d="M313.043,325.905L313.043,311.481" style="fill:none;stroke:black;stroke-width:0.75px;stroke-linecap:butt;stroke-linejoin:miter;stroke-miterlimit:2;"/>
    </g>
    <g transform="matrix(1,0,0,1,-38.8174,-130.488)">
        <path d="M327.216,325.905L327.216,311.481" style="fill:none;stroke:black;stroke-width:0.75px;stroke-linecap:butt;stroke-linejoin:miter;stroke-miterlimit:2;"/>
    </g>
    <g transform="matrix(1,0,0,1,-38.8174,-130.488)">
        <path d="M341.39,325.905L341.39,311.481" style="fill:none;fill-rule:nonzero;"/>
    </g>
    <g transform="matrix(1,0,0,1,-38.8174,-130.488)">
        <path d="M341.39,325.905L341.39,311.481" style="fill:none;stroke:black;stroke-width:0.75px;stroke-linecap:butt;stroke-linejoin:miter;stroke-miterlimit:2;"/>
    </g>
    <g transform="matrix(1,0,0,1,-38.8174,-130.488)">
        <path d="M355.562,325.905L355.562,311.481" style="fill:none;stroke:black;stroke-width:0.75px;stroke-linecap:butt;stroke-linejoin:miter;stroke-miterlimit:2;"/>
    </g>
    <g transform="matrix(1,0,0,1,-38.8174,-130.488)">
        <path d="M369.736,325.905L369.736,311.481" style="fill:none;fill-rule:nonzero;"/>
    </g>
    <g transform="matrix(1,0,0,1,-38.8174,-130.488)">
        <path d="M369.736,325.905L369.736,311.481" style="fill:none;stroke:black;stroke-width:0.75px;stroke-linecap:butt;stroke-linejoin:miter;stroke-miterlimit:2;"/>
    </g>
    <g transform="matrix(1,0,0,1,-38.8174,-130.488)">
        <path d="M383.909,325.905L383.909,311.481" style="fill:none;stroke:black;stroke-width:0.75px;stroke-linecap:butt;stroke-linejoin:miter;stroke-miterlimit:2;"/>
    </g>
    <g transform="matrix(1,0,0,1,-38.8174,-130.488)">
        <path d="M398.083,325.905L398.083,311.481" style="fill:none;fill-rule:nonzero;"/>
    </g>
    <g transform="matrix(1,0,0,1,-38.8174,-130.488)">
        <path d="M398.083,325.905L398.083,311.481" style="fill:none;stroke:black;stroke-width:0.75px;stroke-linecap:butt;stroke-linejoin:miter;stroke-miterlimit:2;"/>
    </g>
    <g transform="matrix(1,0,0,1,-38.8174,-130.488)">
        <path d="M412.256,325.905L412.256,311.481" style="fill:none;stroke:black;stroke-width:0.75px;stroke-linecap:butt;stroke-linejoin:miter;stroke-miterlimit:2;"/>
    </g>
    <g transform="matrix(1,0,0,1,-38.8174,-130.488)">
        <path d="M426.43,325.905L426.43,311.481" style="fill:none;fill-rule:nonzero;"/>
    </g>
    <g transform="matrix(1,0,0,1,-38.8174,-130.488)">
        <path d="M426.43,325.905L426.43,311.481" style="fill:none;stroke:black;stroke-width:0.75px;stroke-linecap:butt;stroke-linejoin:miter;stroke-miterlimit:2;"/>
    </g>
    <g transform="matrix(1,0,0,1,-38.8174,-130.488)">
        <path d="M440.603,325.905L440.603,311.481" style="fill:none;stroke:black;stroke-width:0.75px;stroke-linecap:butt;stroke-linejoin:miter;stroke-miterlimit:2;"/>
    </g>
    <g transform="matrix(1,0,0,1,-38.8174,-130.488)">
        <path d="M454.776,325.905L454.776,311.481" style="fill:none;fill-rule:nonzero;"/>
    </g>
    <g transform="matrix(1,0,0,1,-38.8174,-130.488)">
        <path d="M454.776,325.905L454.776,311.481" style="fill:none;stroke:black;stroke-width:0.75px;stroke-linecap:butt;stroke-linejoin:miter;stroke-miterlimit:2;"/>
    </g>
    <g transform="matrix(1,0,0,1,-38.8174,-130.488)">
        <path d="M468.949,325.905L468.949,311.481" style="fill:none;stroke:black;stroke-width:0.75px;stroke-linecap:butt;stroke-linejoin:miter;stroke-miterlimit:2;"/>
    </g>
    <g transform="matrix(1,0,0,1,-38.8174,-130.488)">
        <path d="M483.123,325.905L483.123,311.481" style="fill:none;fill-rule:nonzero;"/>
    </g>
    <g transform="matrix(1,0,0,1,-38.8174,-130.488)">
        <path d="M483.123,325.905L483.123,311.481" style="fill:none;stroke:black;stroke-width:0.75px;stroke-linecap:butt;stroke-linejoin:miter;stroke-miterlimit:2;"/>
    </g>
    <g transform="matrix(1,0,0,1,-38.8174,-130.488)">
        <path d="M497.296,325.905L497.296,311.481" style="fill:none;stroke:black;stroke-width:0.75px;stroke-linecap:butt;stroke-linejoin:miter;stroke-miterlimit:2;"/>
    </g>
    <g transform="matrix(1,0,0,1,-38.8174,-130.488)">
        <path d="M511.47,325.905L511.47,311.481" style="fill:none;fill-rule:nonzero;"/>
    </g>
    <g transform="matrix(1,0,0,1,-38.8174,-130.488)">
        <path d="M511.47,325.905L511.47,311.481" style="fill:none;stroke:black;stroke-width:0.75px;stroke-linecap:butt;stroke-linejoin:miter;stroke-miterlimit:2;"/>
    </g>
    <g transform="matrix(1,0,0,1,-38.8174,-130.488)">
        <path d="M525.643,325.905L525.643,311.481" style="fill:none;stroke:black;stroke-width:0.75px;stroke-linecap:butt;stroke-linejoin:miter;stroke-miterlimit:2;"/>
    </g>
    <g transform="matrix(1,0,0,1,-38.8174,-130.488)">
        <path d="M539.816,325.905L539.816,311.481" style="fill:none;fill-rule:nonzero;"/>
    </g>
    <g transform="matrix(1,0,0,1,-38.8174,-130.488)">
        <path d="M539.816,325.905L539.816,311.481" style="fill:none;stroke:black;stroke-width:0.75px;stroke-linecap:butt;stroke-linejoin:miter;stroke-miterlimit:2;"/>
    </g>
    <g transform="matrix(1,0,0,1,-38.8174,-130.488)">
        <path d="M553.989,325.905L553.989,311.481" style="fill:none;stroke:black;stroke-width:0.75px;stroke-linecap:butt;stroke-linejoin:miter;stroke-miterlimit:2;"/>
    </g>
    <g transform="matrix(1,0,0,1,-38.8174,-130.488)">
        <path d="M568.163,325.905L568.163,311.481" style="fill:none;fill-rule:nonzero;"/>
    </g>
    <g transform="matrix(1,0,0,1,-38.8174,-130.488)">
        <path d="M568.163,325.905L568.163,311.481" style="fill:none;stroke:black;stroke-width:0.75px;stroke-linecap:butt;stroke-linejoin:miter;stroke-miterlimit:2;"/>
    </g>
    <g transform="matrix(1,0,0,1,-38.8174,-130.488)">
        <path d="M582.336,325.905L582.336,311.481" style="fill:none;stroke:black;stroke-width:0.75px;stroke-linecap:butt;stroke-linejoin:miter;stroke-miterlimit:2;"/>
    </g>
    <g transform="matrix(1,0,0,1,-38.8174,-130.488)">
        <path d="M596.51,325.905L596.51,311.481" style="fill:none;fill-rule:nonzero;"/>
    </g>
    <g transform="matrix(1,0,0,1,-38.8174,-130.488)">
        <path d="M596.51,325.905L596.51,311.481" style="fill:none;stroke:black;stroke-width:0.75px;stroke-linecap:butt;stroke-linejoin:miter;stroke-miterlimit:2;"/>
    </g>
    <g transform="matrix(1,0,0,1,-38.8174,-130.488)">
        <path d="M610.683,325.905L610.683,311.481" style="fill:none;stroke:black;stroke-width:0.75px;stroke-linecap:butt;stroke-linejoin:miter;stroke-miterlimit:2;"/>
    </g>
    <g transform="matrix(1,0,0,1,-38.8174,-130.488)">
        <path d="M624.856,325.905L624.856,311.481" style="fill:none;fill-rule:nonzero;"/>
    </g>
    <g transform="matrix(1,0,0,1,-38.8174,-130.488)">
        <path d="M624.856,325.905L624.856,311.481" style="fill:none;stroke:black;stroke-width:0.75px;stroke-linecap:butt;stroke-linejoin:miter;stroke-miterlimit:2;"/>
    </g>
    <g transform="matrix(1,0,0,1,-38.8174,-130.488)">
        <path d="M639.029,325.905L639.029,311.481" style="fill:none;stroke:black;stroke-width:0.75px;stroke-linecap:butt;stroke-linejoin:miter;stroke-miterlimit:2;"/>
    </g>
    <g transform="matrix(1,0,0,1,-38.8174,-130.488)">
        <path d="M653.203,325.905L653.203,311.481" style="fill:none;fill-rule:nonzero;"/>
    </g>
    <g transform="matrix(1,0,0,1,-38.8174,-130.488)">
        <path d="M653.203,325.905L653.203,311.481" style="fill:none;stroke:black;stroke-width:0.75px;stroke-linecap:butt;stroke-linejoin:miter;stroke-miterlimit:2;"/>
    </g>
    <g transform="matrix(1,0,0,1,-38.8174,-130.488)">
        <path d="M667.376,325.905L667.376,311.481" style="fill:none;stroke:black;stroke-width:0.75px;stroke-linecap:butt;stroke-linejoin:miter;stroke-miterlimit:2;"/>
    </g>
    <g transform="matrix(1,0,0,1,-38.8174,-130.488)">
        <path d="M681.55,325.905L681.55,311.481" style="fill:none;fill-rule:nonzero;"/>
    </g>
    <g transform="matrix(1,0,0,1,-38.8174,-130.488)">
        <path d="M681.55,325.905L681.55,311.481" style="fill:none;stroke:black;stroke-width:0.75px;stroke-linecap:butt;stroke-linejoin:miter;stroke-miterlimit:2;"/>
    </g>
    <g transform="matrix(1,0,0,1,-38.8174,-130.488)">
        <path d="M695.723,325.905L695.723,311.481" style="fill:none;stroke:black;stroke-width:0.75px;stroke-linecap:butt;stroke-linejoin:miter;stroke-miterlimit:2;"/>
    </g>
    <g transform="matrix(1,0,0,1,-38.8174,-130.488)">
        <path d="M709.896,325.905L709.896,311.481" style="fill:none;fill-rule:nonzero;"/>
    </g>
    <g transform="matrix(1,0,0,1,-38.8174,-130.488)">
        <path d="M709.896,325.905L709.896,311.481" style="fill:none;stroke:black;stroke-width:0.75px;stroke-linecap:butt;stroke-linejoin:miter;stroke-miterlimit:2;"/>
    </g>
    <g transform="matrix(1,0,0,1,-38.8174,-130.488)">
        <path d="M724.069,325.905L724.069,311.481" style="fill:none;stroke:black;stroke-width:0.75px;stroke-linecap:butt;stroke-linejoin:miter;stroke-miterlimit:2;"/>
    </g>
    <g transform="matrix(1,0,0,1,-38.8174,-130.488)">
        <path d="M738.243,325.905L738.243,311.481" style="fill:none;fill-rule:nonzero;"/>
    </g>
    <g transform="matrix(1,0,0,1,-38.8174,-130.488)">
        <path d="M738.243,325.905L738.243,311.481" style="fill:none;stroke:black;stroke-width:0.75px;stroke-linecap:butt;stroke-linejoin:miter;stroke-miterlimit:2;"/>
    </g>
    <g transform="matrix(1,0,0,0.633104,-38.8174,-16.2067)">
        <path d="M752.416,334.264L752.416,311.481" style="fill:none;stroke:black;stroke-width:0.9px;stroke-linecap:butt;stroke-linejoin:miter;stroke-miterlimit:2;"/>
    </g>
    <g transform="matrix(1,0,0,1,-38.8174,-130.488)">
        <path d="M752.416,325.905L752.416,311.481" style="fill:none;stroke:black;stroke-width:0.75px;stroke-linecap:butt;stroke-linejoin:miter;stroke-miterlimit:2;"/>
    </g>
    <g transform="matrix(1,0,0,1,-38.8174,-130.488)">
        <path d="M766.59,325.905L766.59,311.481" style="fill:none;fill-rule:nonzero;"/>
    </g>
    <g transform="matrix(1,0,0,1,-38.8174,-130.488)">
        <path d="M766.59,325.905L766.59,311.481" style="fill:none;stroke:black;stroke-width:0.75px;stroke-linecap:butt;stroke-linejoin:miter;stroke-miterlimit:2;"/>
    </g>
    <g transform="matrix(1,0,0,0.62396,698.159,-13.1502)">
        <path d="M43.749,334.264L43.749,311.481" style="fill:none;fill-rule:nonzero;"/>
    </g>
    <g transform="matrix(1,0,0,0.62396,698.159,-13.1502)">
        <path d="M43.749,334.264L43.749,311.481" style="fill:none;stroke:black;stroke-width:0.9px;stroke-linecap:butt;stroke-linejoin:miter;stroke-miterlimit:2;"/>
    </g>
    <g transform="matrix(1,0,0,1,698.159,-130.28)">
        <path d="M57.922,325.905L57.922,311.481" style="fill:none;fill-rule:nonzero;"/>
    </g>
    <g transform="matrix(1,0,0,1,698.159,-130.28)">
        <path d="M57.922,325.905L57.922,311.481" style="fill:none;stroke:black;stroke-width:0.75px;stroke-linecap:butt;stroke-linejoin:miter;stroke-miterlimit:2;"/>
    </g>
    <g transform="matrix(1,0,0,0.62396,698.159,-13.1502)">
        <path d="M72.095,334.264L72.095,311.481" style="fill:none;stroke:black;stroke-width:0.9px;stroke-linecap:butt;stroke-linejoin:miter;stroke-miterlimit:2;"/>
    </g>
    <g transform="matrix(1,0,0,1,698.159,-130.28)">
        <path d="M86.269,325.905L86.269,311.481" style="fill:none;fill-rule:nonzero;"/>
    </g>
    <g transform="matrix(1,0,0,1,698.159,-130.28)">
        <path d="M86.269,325.905L86.269,311.481" style="fill:none;stroke:black;stroke-width:0.75px;stroke-linecap:butt;stroke-linejoin:miter;stroke-miterlimit:2;"/>
    </g>
    <g transform="matrix(1,0,0,0.62396,698.159,-13.1502)">
        <path d="M100.442,334.264L100.442,311.481" style="fill:none;stroke:black;stroke-width:0.9px;stroke-linecap:butt;stroke-linejoin:miter;stroke-miterlimit:2;"/>
    </g>
    <g transform="matrix(1,0,0,1,698.159,-130.28)">
        <path d="M114.616,325.905L114.616,311.481" style="fill:none;fill-rule:nonzero;"/>
    </g>
    <g transform="matrix(1,0,0,1,698.159,-130.28)">
        <path d="M114.616,325.905L114.616,311.481" style="fill:none;stroke:black;stroke-width:0.75px;stroke-linecap:butt;stroke-linejoin:miter;stroke-miterlimit:2;"/>
    </g>
    <g transform="matrix(1,0,0,0.62396,698.159,-13.1502)">
        <path d="M128.789,334.264L128.789,311.481" style="fill:none;stroke:black;stroke-width:0.9px;stroke-linecap:butt;stroke-linejoin:miter;stroke-miterlimit:2;"/>
    </g>
    <g transform="matrix(1,0,0,1,698.159,-130.28)">
        <path d="M142.963,325.905L142.963,311.481" style="fill:none;fill-rule:nonzero;"/>
    </g>
    <g transform="matrix(1,0,0,1,698.159,-130.28)">
        <path d="M142.963,325.905L142.963,311.481" style="fill:none;stroke:black;stroke-width:0.75px;stroke-linecap:butt;stroke-linejoin:miter;stroke-miterlimit:2;"/>
    </g>
    <g transform="matrix(1,0,0,0.62396,698.159,-13.1502)">
        <path d="M157.136,334.264L157.136,311.481" style="fill:none;stroke:black;stroke-width:0.9px;stroke-linecap:butt;stroke-linejoin:miter;stroke-miterlimit:2;"/>
    </g>
    <g transform="matrix(1,0,0,1,698.159,-130.28)">
        <path d="M171.31,325.905L171.31,311.481" style="fill:none;fill-rule:nonzero;"/>
    </g>
    <g transform="matrix(1,0,0,1,698.159,-130.28)">
        <path d="M171.31,325.905L171.31,311.481" style="fill:none;stroke:black;stroke-width:0.75px;stroke-linecap:butt;stroke-linejoin:miter;stroke-miterlimit:2;"/>
    </g>
    <g transform="matrix(1,0,0,0.62396,698.159,-13.1502)">
        <path d="M185.482,334.264L185.482,311.481" style="fill:none;stroke:black;stroke-width:0.9px;stroke-linecap:butt;stroke-linejoin:miter;stroke-miterlimit:2;"/>
    </g>
    <g transform="matrix(1,0,0,1,698.159,-130.28)">
        <path d="M199.656,325.905L199.656,311.481" style="fill:none;fill-rule:nonzero;"/>
    </g>
    <g transform="matrix(1,0,0,1,698.159,-130.28)">
        <path d="M199.656,325.905L199.656,311.481" style="fill:none;stroke:black;stroke-width:0.75px;stroke-linecap:butt;stroke-linejoin:miter;stroke-miterlimit:2;"/>
    </g>
    <g transform="matrix(1,0,0,0.62396,698.159,-13.1502)">
        <path d="M213.829,334.264L213.829,311.481" style="fill:none;stroke:black;stroke-width:0.9px;stroke-linecap:butt;stroke-linejoin:miter;stroke-miterlimit:2;"/>
    </g>
    <g transform="matrix(1,0,0,1,698.159,-130.28)">
        <path d="M228.003,325.905L228.003,311.481" style="fill:none;fill-rule:nonzero;"/>
    </g>
    <g transform="matrix(1,0,0,1,698.159,-130.28)">
        <path d="M228.003,325.905L228.003,311.481" style="fill:none;stroke:black;stroke-width:0.75px;stroke-linecap:butt;stroke-linejoin:miter;stroke-miterlimit:2;"/>
    </g>
    <g transform="matrix(1,0,0,0.62396,698.159,-13.1502)">
        <path d="M242.176,334.264L242.176,311.481" style="fill:none;stroke:black;stroke-width:0.9px;stroke-linecap:butt;stroke-linejoin:miter;stroke-miterlimit:2;"/>
    </g>
    <g transform="matrix(1,0,0,1,698.159,-130.28)">
        <path d="M256.35,325.905L256.35,311.481" style="fill:none;fill-rule:nonzero;"/>
    </g>
    <g transform="matrix(1,0,0,1,698.159,-130.28)">
        <path d="M256.35,325.905L256.35,311.481" style="fill:none;stroke:black;stroke-width:0.75px;stroke-linecap:butt;stroke-linejoin:miter;stroke-miterlimit:2;"/>
    </g>
</svg>
